<svg data-v-7a978a0a="" xmlns="http://www.w3.org/2000/svg" width="24" height="24" viewBox="0 0 24 24" aria-labelledby="hearth" role="presentation" color="#EA4F4F" class="icon hearth"><title data-v-7a978a0a="" id="hearth" lang="en">hearth icon</title> <g data-v-7a978a0a="" fill="currentColor" width="24" height="24"><path data-v-7a978a0a="" d="M20.5742 0.798946C19.2054 0.0288641 17.6282 -0.193565 16.122 0.171039C14.6158 0.535643 13.2777 1.46376 12.3446 2.79107L12.0206 3.1926L11.7398 2.84806C10.8093 1.50478 9.4673 0.561547 7.95278 0.186303C6.43826 -0.188941 4.84952 0.0281576 3.46942 0.798946C2.52508 1.36606 1.72137 2.17064 1.12648 3.14445C0.531582 4.11825 0.163038 5.23255 0.0521038 6.39285C-0.0588302 7.55314 0.0911179 8.7252 0.489231 9.80962C0.887344 10.894 1.52188 11.8588 2.33902 12.6222L10.5686 21.3393C10.7566 21.5473 10.981 21.7129 11.2288 21.8263C11.4766 21.9397 11.7429 21.9988 12.0121 22C12.2813 22.0012 12.548 21.9445 12.7967 21.8333C13.0454 21.7221 13.2711 21.5586 13.4606 21.3523L21.6374 12.6869C22.3847 12.0054 22.9852 11.156 23.3968 10.198C23.8085 9.24003 24.0214 8.19658 24.0206 7.14058C24.0294 5.8463 23.7137 4.57355 23.107 3.45714C22.5003 2.34073 21.6251 1.42224 20.5742 0.798946Z"></path></g></svg>