<svg xmlns="http://www.w3.org/2000/svg" width="24" height="24" viewBox="0 0 24 24" aria-labelledby="instagram" role="presentation" color="#fff" class="icon instagram" data-v-7a978a0a="" data-v-6e8b3121=""><title id="instagram" lang="en" data-v-7a978a0a="">instagram icon</title> <g fill="currentColor" width="24" height="24" data-v-7a978a0a=""><g data-v-7a978a0a=""><path d="M21.7263 12.0394C21.7263 13.4379 21.7303 14.8363 21.7263 16.2387C21.7185 18.2699 20.7732 19.7738 19.0857 20.8363C18.0974 21.4535 16.9998 21.7269 15.8357 21.7269C13.2888 21.7269 10.7459 21.7387 8.199 21.723C6.42947 21.7113 4.90603 21.0863 3.699 19.7738C2.95291 18.9613 2.5076 18.0043 2.37869 16.8988C2.35135 16.6644 2.34744 16.434 2.34744 16.1996C2.34744 13.4144 2.34353 10.6293 2.34744 7.84412C2.35916 5.80897 3.30447 4.30506 4.99197 3.24256C5.98806 2.62147 7.08963 2.35194 8.2615 2.35194C10.8006 2.35194 13.3396 2.34022 15.8787 2.35584C17.656 2.36756 19.1834 2.99647 20.3904 4.31678C21.1287 5.12537 21.5701 6.0824 21.6951 7.17616C21.7459 7.60584 21.7224 8.03553 21.7263 8.46131C21.7303 9.65662 21.7263 10.848 21.7263 12.0394ZM3.79666 12.0394C3.79666 13.473 3.79275 14.9027 3.79666 16.3363C3.80056 17.3207 4.15994 18.1683 4.83181 18.8715C5.73416 19.8129 6.85916 20.2699 8.15213 20.2777C10.7185 20.2933 13.281 20.2816 15.8474 20.2816C16.6756 20.2816 17.4646 20.1019 18.1834 19.6879C19.5271 18.9183 20.2849 17.7855 20.2849 16.1996C20.2849 13.3793 20.2849 10.5629 20.2849 7.74256C20.2849 6.766 19.9295 5.92225 19.2615 5.22303C18.367 4.27772 17.2381 3.81287 15.949 3.80506C13.3553 3.78553 10.7654 3.79725 8.17166 3.79725C7.36306 3.79725 6.59744 3.98865 5.89431 4.38709C4.55447 5.16053 3.79275 6.29334 3.79666 7.87928C3.79666 9.266 3.79666 10.6527 3.79666 12.0394Z"></path> <path d="M12.0508 16.1806C9.52735 16.1806 7.50391 14.165 7.50782 11.6494C7.51172 9.20014 9.5625 7.19233 12.0664 7.19623C14.582 7.19623 16.6133 9.21577 16.6094 11.708C16.6055 14.1767 14.5625 16.1806 12.0508 16.1806ZM12.0508 14.7353C13.7656 14.7353 15.1641 13.372 15.1641 11.6962C15.1641 10.0126 13.7773 8.64155 12.0664 8.64155C10.3516 8.64155 8.95313 10.0048 8.95313 11.6806C8.95313 13.3642 10.3398 14.7353 12.0508 14.7353Z"></path> <path d="M16.1797 6.82813C16.1797 6.27344 16.6055 5.82812 17.1367 5.82812C17.668 5.82812 18.0938 6.27734 18.0938 6.82813C18.0938 7.3711 17.668 7.81641 17.1445 7.82032C16.6133 7.82422 16.1797 7.38281 16.1797 6.82813Z"></path></g></g></svg>