<svg width="23" height="15" viewBox="0 0 23 15" fill="none" xmlns="http://www.w3.org/2000/svg">
<path fill-rule="evenodd" clip-rule="evenodd" d="M11.6638 13.6024C11.6068 13.626 11.5456 13.6383 11.4838 13.6385C11.4218 13.6385 11.3604 13.6262 11.3033 13.6026C11.2462 13.5791 11.1945 13.5444 11.1514 13.5009C11.0301 13.3788 8.19406 10.4831 8.19406 6.83485C8.32668 4.53485 9.23166 2.34167 10.769 0.59468C10.8586 0.49612 10.9687 0.41723 11.0918 0.36321C11.2149 0.30918 11.3483 0.28125 11.4833 0.28125C11.6183 0.28125 11.7517 0.30918 11.8749 0.36321C11.998 0.41723 12.108 0.49612 12.1976 0.59468C13.7351 2.34157 14.6402 4.53481 14.7726 6.83485C14.7726 10.4831 11.9365 13.3788 11.8153 13.5009C11.7722 13.5443 11.7207 13.5788 11.6638 13.6024ZM14.388 12.4039C15.4898 10.7411 16.1031 8.81465 16.1611 6.83475C16.1592 6.16015 16.0793 5.48785 15.9232 4.83067C15.8991 4.72729 15.913 4.61894 15.9624 4.52455C16.0118 4.43016 16.0936 4.35574 16.1935 4.31427C16.7339 4.08805 17.291 3.90212 17.8601 3.75808C17.9862 3.72681 18.1178 3.72315 18.2455 3.74738C18.3732 3.7716 18.4939 3.82311 18.5988 3.89822C18.7038 3.97332 18.7904 4.07016 18.8525 4.1818C18.9147 4.29344 18.9508 4.41712 18.9582 4.54398C19.1246 6.63615 18.5802 8.72355 17.4092 10.483C16.6847 11.4155 15.7579 12.1798 14.6954 12.7213C14.6506 12.7451 14.599 12.7536 14.5486 12.7458C14.4982 12.738 14.4519 12.7141 14.4169 12.6779C14.3818 12.6418 14.36 12.5953 14.3548 12.5457C14.3495 12.4962 14.3612 12.4463 14.388 12.4039ZM22.4012 8.43015C22.3463 8.31495 22.2661 8.21295 22.1662 8.13155C22.0663 8.05005 21.9493 7.99115 21.8234 7.95895C21.3965 7.85195 20.9637 7.76855 20.5272 7.70935C20.4132 7.69395 20.2975 7.72045 20.2025 7.78385C20.1075 7.84725 20.04 7.94285 20.0133 8.05215C19.7445 9.21555 19.2408 10.3151 18.5319 11.2861C17.7076 12.3507 16.6566 13.2281 15.4514 13.8573C15.4049 13.8823 15.3685 13.9222 15.3486 13.9704C15.3286 14.0185 15.3261 14.0718 15.3417 14.1215C15.3572 14.1711 15.3897 14.214 15.4338 14.243C15.4779 14.272 15.5309 14.2851 15.5838 14.2806C16.4563 14.2088 17.3098 13.9914 18.1069 13.6376C20.002 12.6477 21.5105 11.0757 22.3993 9.16455C22.4549 9.04975 22.4839 8.92445 22.4842 8.79755C22.4846 8.67055 22.4562 8.54515 22.4012 8.43015ZM4.86255 13.6367C5.6597 13.9903 6.51312 14.2078 7.38561 14.2796C7.43863 14.2845 7.49176 14.2715 7.53605 14.2425C7.58034 14.2136 7.61308 14.1707 7.62874 14.121C7.6444 14.0714 7.64203 14.0178 7.62203 13.9697C7.60203 13.9215 7.56562 13.8814 7.51894 13.8563C6.31332 13.2274 5.26195 12.3502 4.43756 11.2852C3.72817 10.3147 3.22392 9.21595 2.95428 8.05305C2.92753 7.94375 2.86009 7.84815 2.76509 7.78475C2.67009 7.72135 2.55435 7.69485 2.4404 7.71025C2.00382 7.76935 1.57104 7.85275 1.14415 7.95985C1.01823 7.99195 0.901116 8.05085 0.801226 8.13225C0.701326 8.21375 0.621126 8.31575 0.566346 8.43105C0.511576 8.54635 0.483585 8.67205 0.484396 8.79925C0.485196 8.92635 0.514786 9.05165 0.571016 9.16635C1.45982 11.0765 2.96804 12.6476 4.86255 13.6367ZM8.27107 12.7213C8.316 12.7454 8.36783 12.7541 8.41844 12.7463C8.46905 12.7385 8.51558 12.7146 8.55073 12.6782C8.58589 12.6418 8.60768 12.595 8.6127 12.5452C8.61772 12.4954 8.60568 12.4454 8.57847 12.403C7.47674 10.7404 6.86342 8.81435 6.80538 6.83475C6.80612 6.16025 6.8847 5.48795 7.03963 4.83065C7.06375 4.72738 7.05 4.61912 7.00076 4.52475C6.95151 4.43037 6.86992 4.35588 6.7702 4.31426C6.22983 4.08804 5.6727 3.90211 5.10359 3.75807C4.97742 3.72678 4.84573 3.72315 4.71796 3.74743C4.59019 3.7717 4.4695 3.82329 4.36454 3.8985C4.25958 3.9737 4.17296 4.07065 4.11088 4.1824C4.0488 4.29415 4.01281 4.41793 4.00547 4.54487C3.84033 6.63715 4.38608 8.72425 5.5582 10.483C6.28247 11.4153 7.20888 12.1797 8.27107 12.7213Z" fill="#2F2A63"/>
</svg>
