<svg xmlns="http://www.w3.org/2000/svg" width="24" height="24" viewBox="0 0 24 24" aria-labelledby="linkedin" role="presentation" color="#fff" class="icon linkedin" data-v-7a978a0a="" data-v-6e8b3121=""><title id="linkedin" lang="en" data-v-7a978a0a="">linkedin icon</title> <g fill="currentColor" width="24" height="24" data-v-7a978a0a=""><g data-v-7a978a0a=""><path d="M2.000 8.500 L7.000 8.500 L7.000 22.500 L2.000 22.500 Z" stroke="none" stroke-linecap="round" stroke-linejoin="round" stroke-width="0"></path><path d="M2.000 4.000 A2.48 2.5 0 1 0 6.960 4.000 A2.48 2.5 0 1 0 2.000 4.000 Z" stroke="none" stroke-linecap="round" stroke-linejoin="round" stroke-width="0"></path><path d="M18.5,22.5h3A.5.5,0,0,0,22,22V13.6C22,9.83,19.87,8,16.89,8a4.21,4.21,0,0,0-3.17,1.27A.41.41,0,0,1,13,9a.5.5,0,0,0-.5-.5h-3A.5.5,0,0,0,9,9V22a.5.5,0,0,0,.5.5h3A.5.5,0,0,0,13,22V14.5a2.5,2.5,0,0,1,5,0V22A.5.5,0,0,0,18.5,22.5Z" stroke="none" stroke-linecap="round" stroke-linejoin="round" stroke-width="0"></path></g></g></svg>