<svg width="17" height="17" viewBox="0 0 17 17" fill="none" xmlns="http://www.w3.org/2000/svg">
<path d="M14.3057 0.28125H2.69432C2.40519 0.281246 2.11892 0.338379 1.85195 0.449367C1.58498 0.560354 1.34257 0.723006 1.13867 0.927977C0.934758 1.13295 0.773367 1.37619 0.663768 1.64374C0.554169 1.91128 0.498524 2.19785 0.50003 2.48696V5.58411C0.505413 7.86284 1.19598 10.0873 2.48202 11.9684C3.76805 13.8495 5.59011 15.3006 7.71146 16.1327C8.21859 16.3304 8.78147 16.3304 9.2886 16.1327C11.41 15.3006 13.232 13.8495 14.518 11.9684C15.8041 10.0873 16.4946 7.86284 16.5 5.58411V2.48696C16.5015 2.19785 16.4459 1.91128 16.3363 1.64374C16.2267 1.37619 16.0653 1.13295 15.8614 0.927977C15.6575 0.723006 15.4151 0.560354 15.1481 0.449367C14.8811 0.338379 14.5949 0.281246 14.3057 0.28125ZM8.50003 3.13839C8.9521 3.13839 9.39402 3.27245 9.7699 3.5236C10.1458 3.77476 10.4388 4.13174 10.6118 4.5494C10.7848 4.96706 10.83 5.42664 10.7418 5.87003C10.6536 6.31341 10.4359 6.72069 10.1163 7.04035C9.79661 7.36001 9.38934 7.57771 8.94595 7.6659C8.50257 7.7541 8.04298 7.70883 7.62532 7.53583C7.20766 7.36283 6.85069 7.06987 6.59953 6.69398C6.34837 6.3181 6.21432 5.87618 6.21432 5.42411C6.21432 4.8179 6.45513 4.23652 6.88379 3.80786C7.31244 3.37921 7.89382 3.13839 8.50003 3.13839ZM12.58 11.3898C12.5329 11.4859 12.4597 11.567 12.3688 11.6236C12.2778 11.6802 12.1728 11.7101 12.0657 11.7099H4.93432C4.82722 11.7101 4.72222 11.6802 4.63128 11.6236C4.54035 11.567 4.46715 11.4859 4.42003 11.3898C4.37173 11.293 4.35251 11.1843 4.36468 11.0768C4.37685 10.9693 4.41989 10.8677 4.4886 10.7842C4.96947 10.1857 5.57847 9.7028 6.27075 9.371C6.96302 9.0392 7.72092 8.86695 8.4886 8.86695C9.25628 8.86695 10.0142 9.0392 10.7065 9.371C11.3987 9.7028 12.0077 10.1857 12.4886 10.7842C12.561 10.8653 12.6082 10.9657 12.6245 11.0733C12.6407 11.1809 12.6253 11.2908 12.58 11.3898Z" fill="#2F2A63"/>
</svg>
