<svg width="17" height="16" viewBox="0 0 17 16" fill="none" xmlns="http://www.w3.org/2000/svg">
<path d="M11.4308 0.424102C11.133 0.42501 10.8369 0.46732 10.5508 0.549816C10.5096 0.563343 10.472 0.585695 10.4404 0.615306C10.4088 0.644918 10.3841 0.681074 10.3679 0.721245C10.3479 0.760118 10.3374 0.803221 10.3374 0.846959C10.3374 0.890697 10.3479 0.9338 10.3679 0.972673C10.8599 1.74341 11.1231 2.63787 11.1272 3.55222C11.1312 4.46657 10.8759 5.36332 10.3908 6.13839C10.3707 6.17726 10.3603 6.22036 10.3603 6.2641C10.3603 6.30784 10.3707 6.35094 10.3908 6.38981C10.4069 6.42998 10.4316 6.46614 10.4632 6.49575C10.4948 6.52536 10.5325 6.54771 10.5736 6.56124C10.8597 6.64374 11.1559 6.68605 11.4536 6.68696C12.2872 6.68696 13.0866 6.35584 13.676 5.76644C14.2654 5.17704 14.5965 4.37764 14.5965 3.5441C14.5965 2.71056 14.2654 1.91116 13.676 1.32176C13.0866 0.732366 12.2872 0.401245 11.4536 0.401245L11.4308 0.424102Z" fill="#2F2A63"/>
<path d="M11.9681 8.42407H11.5796C11.5225 8.42447 11.4666 8.4407 11.4182 8.47097C11.3697 8.50123 11.3307 8.54434 11.3053 8.5955C11.2757 8.64154 11.26 8.69509 11.26 8.74978C11.26 8.80448 11.2757 8.85803 11.3053 8.90407C12.6662 10.3069 13.4284 12.1839 13.431 14.1383C13.429 14.4202 13.3906 14.7006 13.3167 14.9726C13.2967 15.0115 13.2862 15.0546 13.2862 15.0983C13.2862 15.1421 13.2967 15.1852 13.3167 15.2241C13.3439 15.2589 13.3785 15.2873 13.4181 15.307C13.4576 15.3268 13.5011 15.3375 13.5453 15.3383H15.7167C16.0198 15.3383 16.3105 15.2179 16.5248 15.0036C16.7392 14.7893 16.8596 14.4986 16.8596 14.1955V14.1383C16.9016 12.748 16.4237 11.3918 15.5191 10.3351C14.6145 9.27837 13.3484 8.59696 11.9681 8.42407Z" fill="#2F2A63"/>
<path d="M6.28812 6.70978C8.02387 6.70978 9.43097 5.30268 9.43097 3.56693C9.43097 1.83118 8.02387 0.424072 6.28812 0.424072C4.55236 0.424072 3.14526 1.83118 3.14526 3.56693C3.14526 5.30268 4.55236 6.70978 6.28812 6.70978Z" fill="#2F2A63"/>
<path d="M0.85944 14.1383C0.85944 14.4414 0.979848 14.7321 1.19418 14.9465C1.4085 15.1608 1.69919 15.2812 2.0023 15.2812H10.5737C10.8769 15.2812 11.1675 15.1608 11.3819 14.9465C11.5962 14.7321 11.7166 14.4414 11.7166 14.1383C11.7587 12.748 11.2807 11.3918 10.3761 10.3351C9.47156 9.27841 8.20539 8.59699 6.82515 8.42411C6.06844 8.34886 5.30437 8.43342 4.58243 8.67233C3.8605 8.91124 3.19682 9.29916 2.63438 9.81096C2.07194 10.3227 1.62331 10.947 1.31754 11.6432C1.01178 12.3395 0.855708 13.0922 0.85944 13.8526V14.1383Z" fill="#2F2A63"/>
</svg>
