<svg width="22" height="21" viewBox="0 0 22 21" fill="none" xmlns="http://www.w3.org/2000/svg">
<path d="M21.7334 8.09617C21.6182 7.75028 21.4058 7.44253 21.12 7.20764C20.8343 6.97274 20.4866 6.82003 20.1162 6.76675L15.2832 6.08974L13.1154 1.85683C12.9495 1.53371 12.6941 1.26189 12.378 1.0719C12.0618 0.8819 11.6973 0.78125 11.3255 0.78125C10.9536 0.78125 10.5892 0.8819 10.273 1.0719C9.95683 1.26189 9.70153 1.53371 9.53563 1.85683L7.37445 6.08845L2.54277 6.76675C2.17414 6.82016 1.82802 6.97187 1.54296 7.20499C1.25789 7.43811 1.04508 7.74349 0.928206 8.08711C0.810846 8.43265 0.796386 8.80325 0.886496 9.15645C0.976596 9.50955 1.1676 9.83085 1.43751 10.0831L4.92794 13.3659L4.10267 18.0067C4.0398 18.3634 4.08088 18.73 4.22127 19.0653C4.36165 19.4007 4.59577 19.6912 4.89718 19.9042C5.19859 20.1171 5.55531 20.244 5.92708 20.2705C6.29884 20.2971 6.67086 20.2222 7.00114 20.0544L11.3275 17.8591L15.6579 20.0597C15.9884 20.2278 16.3607 20.3026 16.7327 20.2759C17.1048 20.2493 17.4618 20.1222 17.7633 19.9088C18.0648 19.6955 18.2989 19.4046 18.439 19.069C18.5792 18.7333 18.6198 18.3661 18.5563 18.0093L17.7271 13.3673L21.2175 10.0831C21.4858 9.83165 21.6762 9.51225 21.7674 9.16115C21.8586 8.81005 21.8468 8.44115 21.7334 8.09617Z" fill="#2F2A63"/>
</svg>
