<svg data-v-7a978a0a="" xmlns="http://www.w3.org/2000/svg" width="24" height="24" viewBox="0 0 24 24" aria-labelledby="star" role="presentation" color="#F1AC26" class="icon star"><title data-v-7a978a0a="" id="star" lang="en">star icon</title> <g data-v-7a978a0a="" fill="currentColor" width="24" height="24"><path data-v-7a978a0a="" d="M22.4053 9.81492C22.2901 9.46903 22.0777 9.16128 21.7919 8.92639C21.5062 8.69149 21.1585 8.53878 20.7881 8.4855L15.9551 7.80849L13.7873 3.57558C13.6214 3.25246 13.366 2.98064 13.0499 2.79065C12.7337 2.60065 12.3692 2.5 11.9974 2.5C11.6255 2.5 11.2611 2.60065 10.9449 2.79065C10.6287 2.98064 10.3734 3.25246 10.2075 3.57558L8.04632 7.8072L3.21464 8.4855C2.84601 8.53891 2.49989 8.69062 2.21483 8.92374C1.92976 9.15686 1.71695 9.46224 1.60008 9.80586C1.48272 10.1514 1.46826 10.522 1.55837 10.8752C1.64847 11.2283 1.83947 11.5496 2.10938 11.8019L5.59981 15.0847L4.77454 19.7254C4.71167 20.0821 4.75275 20.4488 4.89314 20.7841C5.03352 21.1194 5.26764 21.4099 5.56905 21.6229C5.87046 21.8358 6.22718 21.9628 6.59895 21.9893C6.97071 22.0159 7.34273 21.941 7.67301 21.7732L11.9994 19.5778L16.3298 21.7784C16.6603 21.9465 17.0326 22.0214 17.4046 21.9947C17.7767 21.9681 18.1337 21.8409 18.4352 21.6276C18.7367 21.4143 18.9708 21.1234 19.1109 20.7877C19.2511 20.452 19.2917 20.0849 19.2282 19.728L18.399 15.086L21.8894 11.8019C22.1577 11.5504 22.3481 11.231 22.4393 10.8799C22.5305 10.5288 22.5187 10.1599 22.4053 9.81492Z"></path></g></svg>