<svg data-v-7a978a0a="" xmlns="http://www.w3.org/2000/svg" width="24" height="24" viewBox="0 0 24 24" aria-labelledby="tick" role="presentation" color="#6BD39B" class="icon tick"><title data-v-7a978a0a="" id="tick" lang="en">tick icon</title> <g data-v-7a978a0a="" fill="currentColor" width="24" height="24"><path data-v-7a978a0a="" d="M4.57559 12.5102C4.23234 12.5042 3.89484 12.421 3.58817 12.2666C3.2815 12.1123 3.01353 11.8909 2.80417 11.6188L0.28988 8.77309C0.189209 8.6602 0.11195 8.52844 0.0625825 8.38547C0.0132149 8.24249 -0.00727908 8.09113 0.00228864 7.94018C0.0118564 7.78922 0.0512955 7.64166 0.118319 7.50606C0.185343 7.37046 0.278618 7.24952 0.392737 7.15024C0.621642 6.95184 0.919947 6.85244 1.2221 6.87387C1.52426 6.89529 1.80555 7.0358 2.00417 7.26452L4.35845 9.92738C4.38139 9.96037 4.41224 9.98708 4.44818 10.0051C4.48413 10.023 4.52401 10.0317 4.56417 10.0302C4.60309 10.0312 4.64173 10.0235 4.67731 10.0077C4.71288 9.99185 4.7445 9.96833 4.76988 9.93881L14.0385 0.293093C14.2529 0.100221 14.5324 -0.00442551 14.8208 0.000143554C15.1092 0.00471262 15.3852 0.11816 15.5934 0.317728C15.8017 0.517296 15.9267 0.788224 15.9436 1.07617C15.9604 1.36411 15.8677 1.64776 15.6842 1.87024L6.31274 11.7331C6.09903 11.9835 5.83226 12.1831 5.53179 12.3175C5.23131 12.4519 4.90468 12.5178 4.57559 12.5102Z"></path></g></svg>