<svg xmlns="http://www.w3.org/2000/svg" width="24" height="24" viewBox="0 0 24 24" aria-labelledby="twitter" role="presentation" color="#fff" class="icon twitter" data-v-7a978a0a="" data-v-6e8b3121=""><title id="twitter" lang="en" data-v-7a978a0a="">twitter icon</title> <g fill="currentColor" width="24" height="24" data-v-7a978a0a=""><path d="M22 5.90467C21.2651 6.23017 20.4748 6.44717 19.641 6.54999C20.4886 6.04681 21.141 5.2442 21.4471 4.29565C20.6539 4.76045 19.775 5.10206 18.8402 5.2821C18.0935 4.49086 17.0284 4 15.8487 4C13.5825 4 11.7451 5.82081 11.7451 8.06614C11.7451 8.38406 11.7825 8.69345 11.8522 8.99384C8.44272 8.8228 5.41846 7.20193 3.39534 4.74197C3.03999 5.34322 2.84005 6.04681 2.84005 6.78973C2.84005 8.20118 3.56259 9.44395 4.66465 10.176C3.99185 10.1556 3.35886 9.96845 2.80451 9.66806C2.80451 9.68038 2.80451 9.69838 2.80451 9.71591C2.80451 11.6883 4.21927 13.331 6.09457 13.7048C5.75201 13.7986 5.38956 13.8508 5.0162 13.8508C4.75135 13.8508 4.49313 13.8209 4.24296 13.7759C4.76509 15.3878 6.27983 16.5661 8.07458 16.6012C6.67024 17.6899 4.90155 18.3419 2.97839 18.3419C2.64626 18.3419 2.32124 18.3229 2 18.2841C3.81797 19.4349 5.97517 20.1092 8.2911 20.1092C15.8373 20.1092 19.966 13.9123 19.966 8.53615C19.966 8.3599 19.9603 8.18459 19.9522 8.01118C20.7577 7.44215 21.4518 6.72482 22 5.90467Z" data-v-7a978a0a=""></path></g></svg>