<svg xmlns="http://www.w3.org/2000/svg" width="24" height="24" viewBox="0 0 24 24" aria-labelledby="youtube" role="presentation" color="#fff" class="icon youtube" data-v-7a978a0a="" data-v-6e8b3121=""><title id="youtube" lang="en" data-v-7a978a0a="">youtube icon</title> <g fill="currentColor" width="24" height="24" data-v-7a978a0a=""><g transform="matrix(1.7142857142857142,0,0,1.7142857142857142,0,0)" data-v-7a978a0a=""><path d="M11.5,1.5h-9A2.5,2.5,0,0,0,0,4v6a2.5,2.5,0,0,0,2.5,2.5h9A2.5,2.5,0,0,0,14,10V4A2.5,2.5,0,0,0,11.5,1.5ZM9.571,7.625,6.358,9.41h0A.715.715,0,0,1,5.3,8.785V5.215a.715.715,0,0,1,1.06-.626L9.571,6.375a.715.715,0,0,1,0,1.25Z" stroke="none" stroke-linecap="round" stroke-linejoin="round" stroke-width="0"></path></g></g></svg>